Coordinates
version=1
nRows=10
nColumns=40
inDegrees=yes

Units are S.I. units (second, meters, Newtons, ...)
Angles are in degrees.

endheader
time	pelvis_tilt	pelvis_list	pelvis_rotation	pelvis_tx	pelvis_ty	pelvis_tz	hip_flexion_r	hip_adduction_r	hip_rotation_r	knee_angle_r	knee_angle_r_beta	ankle_angle_r	subtalar_angle_r	mtp_angle_r	hip_flexion_l	hip_adduction_l	hip_rotation_l	knee_angle_l	knee_angle_l_beta	ankle_angle_l	subtalar_angle_l	mtp_angle_l	lumbar_extension	lumbar_bending	lumbar_rotation	arm_flex_r	arm_add_r	arm_rot_r	elbow_flex_r	pro_sup_r	wrist_flex_r	wrist_dev_r	arm_flex_l	arm_add_l	arm_rot_l	elbow_flex_l	pro_sup_l	wrist_flex_l	wrist_dev_l
      1.12300000	     -2.56257342	     -5.76590854	      6.15299518	      1.02837061	      0.92569210	      0.48699323	      0.57344009	      3.96295876	    -16.72517283	     10.76412034	     10.76412034	     14.44603485	      3.81427109	     -6.01451156	     28.49565861	     -9.57534950	      0.09010678	     25.62834652	     25.62834652	      7.44515068	    -10.60702712	      7.92442815	     -8.74076358	      6.62430901	      4.48055833	     35.24621940	    -15.28327533	     -0.39469669	     91.67052025	     44.17230393	      0.00000000	      0.00000000	    -11.46082682	     -7.79255053	     -0.38269333	     30.18019299	     45.82966078	      0.00000000	      0.00000000
      1.13600000	     -2.54897242	     -5.82468029	      5.90720666	      1.02923197	      0.92483218	      0.48475743	      0.16980563	      3.87609148	    -16.47130628	     10.86752818	     10.86752818	     14.80913314	      3.89455036	     -6.05572939	     27.82170858	     -9.45404211	      0.19452609	     26.06180100	     26.06180100	      7.45934344	    -10.75189141	      7.71523647	     -8.50576397	      6.57012501	      4.56676608	     35.07732247	    -15.26857983	     -0.37367094	     91.81088737	     44.17103034	      0.00000000	      0.00000000	    -11.80014245	     -7.68634463	     -0.34829016	     30.16022146	     45.81810176	      0.00000000	      0.00000000
      1.14900000	     -2.52674435	     -5.86978523	      5.71269893	      1.03000896	      0.92408808	      0.48236055	     -0.22418647	      3.76461456	    -16.24463656	     10.99236395	     10.99236395	     15.15464889	      3.93261102	     -6.03275312	     27.22593221	     -9.30466700	      0.34981411	     26.44789664	     26.44789664	      7.55417501	    -10.91763262	      7.44933914	     -8.32294689	      6.50997493	      4.52648971	     34.84384035	    -15.20385466	     -0.34650864	     92.01554620	     44.16754603	      0.00000000	      0.00000000	    -12.02900372	     -7.62236670	     -0.32017028	     30.13696001	     45.80943096	      0.00000000	      0.00000000
      1.16200000	     -2.50435705	     -5.87356202	      5.56373347	      1.03063792	      0.92348351	      0.47979931	     -0.58158495	      3.59038763	    -16.03839257	     11.17000502	     11.17000502	     15.45993607	      3.91683591	     -5.95572217	     26.72154701	     -9.11580357	      0.50037004	     26.80184407	     26.80184407	      7.73254866	    -11.11041181	      7.14912468	     -8.16654374	      6.41359940	      4.41127705	     34.49707094	    -15.13602645	     -0.32003368	     92.17789360	     44.16474194	      0.00000000	      0.00000000	    -12.12392079	     -7.60137420	     -0.30050398	     30.10617140	     45.80443497	      0.00000000	      0.00000000
      1.17500000	     -2.56908499	     -5.83293982	      5.42126995	      1.03105935	      0.92298211	      0.47711768	     -0.58104738	      3.28349962	    -15.77698264	     11.89833736	     11.89833736	     16.39685724	      3.76796499	     -4.16482708	     26.28771523	     -8.83511165	      0.77121937	     26.90295029	     26.90295029	      7.33115423	    -11.80050802	      5.53775635	     -8.00421508	      6.24913807	      4.60884560	     33.64205663	    -15.33849686	     -0.67942080	     93.24242548	     44.18919542	      0.00000000	      0.00000000	    -11.80421782	     -7.64554996	     -0.13722222	     29.82536091	     45.78263812	      0.00000000	      0.00000000
      1.18800000	     -2.52057625	     -5.80299688	      5.35847257	      1.03139995	      0.92280277	      0.47428744	     -0.93170783	      3.05143188	    -15.65754536	     12.08843005	     12.08843005	     16.57288107	      3.74960895	     -4.14128766	     25.93152571	     -8.64177451	      0.84346752	     27.23960669	     27.23960669	      7.70884566	    -11.94605443	      5.28336084	     -7.95223205	      6.11197741	      4.38283931	     33.14154622	    -15.30517901	     -0.64964036	     93.08188798	     44.19473623	      0.00000000	      0.00000000	    -11.59257052	     -7.67958939	     -0.11961903	     29.82757038	     45.78335062	      0.00000000	      0.00000000
      1.20100000	     -2.46245451	     -5.73874561	      5.30432976	      1.03156730	      0.92283947	      0.47130840	     -1.16729793	      2.73552974	    -15.57142827	     12.50215034	     12.50215034	     16.70183436	      3.63497151	     -4.07698147	     25.61439780	     -8.42495334	      0.86742813	     27.57109034	     27.57109034	      8.12278254	    -12.10406357	      5.00560362	     -7.94197343	      5.95860718	      4.15470673	     32.48875418	    -15.26658886	     -0.61232208	     92.83065138	     44.20286461	      0.00000000	      0.00000000	    -11.23887407	     -7.78580536	     -0.10522627	     29.81731158	     45.78704085	      0.00000000	      0.00000000
      1.21400000	     -2.57079071	     -5.58740748	      5.18034237	      1.03136139	      0.92278806	      0.46829250	     -0.79869567	      2.17529700	    -15.43115492	     13.72559168	     13.72559168	     17.10670470	      3.31503015	     -3.74437000	     25.44897386	     -8.14521872	      0.69592669	     27.79215625	     27.79215625	      8.49527310	    -12.20322770	      4.62484042	     -7.78536512	      5.69293703	      4.19045464	     31.73375483	    -15.44771156	     -0.78112775	     92.23709172	     44.23879632	      0.00000000	      0.00000000	    -10.52362193	     -7.90527420	     -0.00912648	     29.49254962	     45.78521866	      0.00000000	      0.00000000
      1.22700000	     -2.47505695	     -5.58232719	      5.15822642	      1.03126688	      0.92325189	      0.46517974	     -0.93973379	      1.88420508	    -15.39906654	     14.33012819	     14.33012819	     17.08869475	      3.15662000	     -3.65574787	     25.11160900	     -8.00401841	      0.68236130	     28.02738390	     28.02738390	      8.95180253	    -12.30897670	      4.37386692	     -7.87363960	      5.63782851	      3.89427867	     30.85357796	    -15.34774785	     -0.69351928	     91.87191024	     44.24807339	      0.00000000	      0.00000000	     -9.93028842	     -8.04924000	      0.01245252	     29.52340487	     45.79196125	      0.00000000	      0.00000000
      1.24000000	     -2.59818766	     -5.41619852	      4.97096247	      1.03077763	      0.92349732	      0.46209003	     -0.26672835	      1.21043231	    -15.19033864	     16.04178215	     16.04178215	     17.32318783	      2.69929887	     -3.58893634	     24.90090462	     -7.76865217	      0.26546297	     28.11377983	     28.11377983	      9.37497433	    -12.17902432	      4.06898109	     -7.74059742	      5.36373301	      4.00799702	     29.94884486	    -15.61151321	     -0.79150804	     90.97966639	     44.28786087	      0.00000000	      0.00000000	     -9.02576916	     -8.22174888	      0.10653570	     29.31727197	     45.79343056	      0.00000000	      0.00000000
